<svg viewBox="0 0 512 512" xmlns="http://www.w3.org/2000/svg">
  <defs>
    <clipPath id="b">
      <path d="M0 0h512v512H0z" />
    </clipPath>
    <filter id="a" x="52.97" y="77.3" width="342.72" height="356.81" color-interpolation-filters="sRGB"
      filterUnits="userSpaceOnUse">
      <feFlood flood-color="#fff" result="bg" />
      <feBlend in="SourceGraphic" in2="bg" />
    </filter>
    <mask id="c" x="52.97" y="77.3" width="342.72" height="356.81" maskUnits="userSpaceOnUse">
      <g style="filter:url(#a)">
        <path
          d="M83.84 296.14h-19.8v-3.74l-10.93-1.86.35-3.27c.79-7.27 1.43-14.42 1.92-21.27l-.63.04-.67-19.1 6.63-.35-7.74-9.38 7.31-20.44 2.72 3.27c.71-1.88 1.46-3.95 2.24-6.2l1.08-3.11 17.21 4.8-1.36 3.59c-.21.55-.43 1.12-.65 1.68l3.04 1.12v-2.97h5.31l1.69-3.15v3.15h9.62v-7.04h22.35v7.04h16.62v19.46h-2.04v17.47h-.85v39.85h-22.35v-3.31h-5.89v3.31H87.44v-6.48l-3.6.2v6.7Zm-12.8-7h5.8v-31.83l10-.67.49 1.96 1.2-.25-2.29-9.49h.06c-.31-1.21-.68-2.65-1.13-4.29l-1.18.3 1.76 7.29-15.71.84 3.42-5.43h-.03l4.62-7.4c1.92-3.08 4.02-6.73 6.27-10.89L81 228.06c-1.59 2.98-3.55 6.49-5.86 10.47l-2.55 4.38-5.73-7.05 1.02-2.02c2.48-4.91 4.59-9.49 6.32-13.65l-3.44-.96c-1.25 3.48-2.42 6.47-3.5 8.94l-2.27 5.2-2.25-2.7-1.85 5.16 9.16 11.09-4 6.4-4.74.25.18 4.98 9.54-.69v31.3Zm50.88-.42h8.35v-27.93H94.45v27.93h7.58v-3.31h19.89zm-61.15-3.98.58.1c.6-5.46 1.07-10.91 1.4-16.29l-.53-.03c-.4 5.27-.88 10.7-1.45 16.22m24.33-16.83c.21 4.67.39 9.49.52 14.42l.51-.03c-.18-3.96-.47-8.78-.87-14.41zm8.58-19.05h37.43v-4.7h-14.58v-12.77h16.62v-5.46h-16.62v-7.04h-8.35v7.04H91.56v5.46h16.62v12.77h-14.5zm28.24 32.35h-19.89V265.9h19.89zm-12.89-7h5.89v-1.31h-5.89z" />
        <path
          d="M191.27 296.14H168.5v-12.22c-6.47 3.92-13.94 7.52-22.3 10.72l-3.09 1.18-8.74-19.53 3.79-1.16c4.79-1.46 9.28-3.06 13.44-4.77h-8.46v-34.09h-5v-19.04h30.36v-5.34h22.77v5.34h30.35v19.04h-5v34.09h-8.46c4.16 1.71 8.65 3.31 13.45 4.77l3.79 1.16-8.74 19.53-3.09-1.18c-8.36-3.2-15.83-6.79-22.3-10.72zm-15.77-7h8.77v-18.41l5.51 3.87c6.41 4.5 14.21 8.63 23.21 12.29l2.8-6.25c-9.37-3.09-17.58-6.7-24.45-10.75l-11.05-6.51h29.34v-23.36h-25.35v-10.73h30.35v-5.04h-30.35v-5.34h-8.77v5.34h-30.36v5.04h30.36v10.73h-25.35v23.36h29.34l-11.05 6.51c-6.87 4.05-15.08 7.66-24.45 10.75l2.8 6.25c9-3.66 16.79-7.78 23.21-12.29l5.51-3.87v18.41Zm26.54-29.97h-17.77v-14.89h17.77zm-10.77-7h3.77v-.89h-3.77zm-15.77 7h-17.77v-14.89h17.77zm-10.77-7h3.77v-.89h-3.77z" />
      </g>
    </mask>
  </defs>
  <g style="fill:#000;clip-path:url(#b)" data-name="图层 1">
    <path
      d="M373.14 87.69c-45.18-33.66-134.82 14.95-193.97 138.44-33.08 69.07-43.55 139.13-4.3 164.02 8.31 5.27 17.37 7.83 26.9 8.1h.31l10.85.28c-2.92 3.32-8.8 9.8-21.41 23.29l26.41 12.29c13.05-14.33 23.61-25.26 32.86-34.64l7.61.19 15.63-15.95v-7.81c14.39-14.94 27.96-30.47 47.99-58.2.01 0 .01-.01.01-.01 9.26-11.82 17.82-24.27 25.35-36.86 42.96-71.81 69.77-160.36 25.76-193.14m-45.76 173.02c-40.77 72.76-108.35 139.71-143.12 105.82-25.15-24.52-2.79-106.83 21.4-150.9 48.8-88.93 120.08-131.38 147.91-110.56 31.14 23.3 7.07 96.31-26.19 155.64"
      style="fill:#000;mask:url(#c)" />
    <path
      d="m56.93 236.51 4.58-12.8 2.54 3.05c1.36-3.11 2.85-7.04 4.49-11.79l10.34 2.88q-2.97 7.8-7.89 17.55l1.1 1.36c3.05-5.26 5.45-9.61 7.21-13.06l8.73 3.22v-4.49h16.62v-7.04H120v7.04h16.62v12.46H120v5.77h14.58v11.7H90.66l1.19 4.92h41.89v34.93h-15.35v-3.31H105.5v3.31H90.92v-30.78l-6.19 1.27-.59-2.37-3.82.25v32.05h-12.8V261.6l-9.41.68-.42-12.04 6.36-.34 1.7-2.71zm0 51.13c.85-7.86 1.53-15.46 2.04-22.81l7.46.42c-.4 7.8-1.07 15.69-2.04 23.66zm24.42-38.75-1.27-5.26-3.48 5.51zm-.34-6.87 6.61-1.7c1.19 4.3 2.04 7.52 2.54 9.67v-9.33h14.5v-5.77H88.04v-5.17c-2.54 4.75-4.89 8.85-7.04 12.29Zm8.73 43.58-7.55.42c-.17-7.35-.42-14.41-.76-21.2l7.04-.85c.68 9.16 1.1 16.37 1.27 21.62Zm15.77-7.89h12.89v-8.31h-12.89zm61.14-10.84h-20.01v-30.36h25.35v-3.73h-30.36v-12.04h30.36v-5.34h15.77v5.34h30.35v12.04h-30.35v3.73h25.35v30.36H193.1c7.57 4.47 16.73 8.34 27.47 11.62l-5.77 12.89c-10.63-4.07-19.64-8.7-27.05-13.91v15.18h-15.77v-15.18c-7.41 5.2-16.42 9.84-27.05 13.91l-5.77-12.89c10.74-3.28 19.9-7.15 27.47-11.62zm-5.43-11.19h10.77v-7.89h-10.77zm37.31 0v-7.89h-10.77v7.89zm118.57-40.96v10.43h-77.33v-10.43zm-77.33 24h77.33v10.43h-19.76l-17.3 42.91h-34.26l17.3-42.91h-23.32v-10.43zm207.99 9.41h7.89v10.51h-12.12l-13.48 33.41h-32.82l13.48-33.41h-7.72v-10.51h11.96l9.33-22.98h-14.5l-13.57 33.49h-12.29l17.72-43.92h59.61l-13.48 33.41z" />
  </g>
</svg>